<svg width="471" height="155" viewBox="0 0 471 155" fill="none" xmlns="http://www.w3.org/2000/svg">
<path d="M5 93.6111C11.6861 98.7828 21.7314 101.804 33.1944 101.667C44.6575 101.804 54.7028 98.7828 61.3889 93.6111C68.075 88.4395 78.1203 85.4186 89.5833 85.5556C101.046 85.4186 111.092 88.4395 117.778 93.6111M45.2778 5C42.7283 6.82998 40.6625 9.25311 39.2591 12.0601C37.8556 14.8671 37.1565 17.9735 37.2222 21.1111C37.1565 24.2487 37.8556 27.3552 39.2591 30.1621C40.6625 32.9691 42.7283 35.3922 45.2778 37.2222M77.5 5C74.9505 6.82998 72.8848 9.25311 71.4813 12.0601C70.0778 14.8671 69.3787 17.9735 69.4444 21.1111C69.3787 24.2487 70.0778 27.3552 71.4813 30.1621C72.8848 32.9691 74.9505 35.3922 77.5 37.2222" stroke="#0269F5" stroke-width="8.66667" stroke-linecap="round" stroke-linejoin="round"/>
<path d="M5 61.3889H117.778V101.667C117.778 114.485 112.686 126.779 103.621 135.844C94.557 144.908 82.2632 150 69.4444 150H53.3333C40.5145 150 28.2208 144.908 19.1565 135.844C10.0922 126.779 5 114.485 5 101.667V61.3889Z" stroke="#0269F5" stroke-width="8.66667" stroke-linecap="round" stroke-linejoin="round"/>
<path d="M115.731 115.571C119.329 117.222 123.277 117.965 127.229 117.733C131.181 117.501 135.015 116.302 138.395 114.241C141.775 112.18 144.597 109.321 146.612 105.914C148.628 102.507 149.776 98.6573 149.956 94.7028C150.135 90.7483 149.34 86.8103 147.641 83.2349C145.942 79.6595 143.391 76.5562 140.211 74.1979C137.032 71.8395 133.322 70.2983 129.408 69.7096C125.493 69.121 121.494 69.5029 117.761 70.8219" stroke="#0269F5" stroke-width="8.66667" stroke-linecap="round" stroke-linejoin="round"/>
<path d="M168.656 86.1641V106.484C168.656 108.617 169.184 110.246 170.238 111.371C171.316 112.473 172.734 113.023 174.492 113.023C175.945 113.023 177.34 112.578 178.676 111.688C180.012 110.797 181.09 109.543 181.91 107.926V86.1641H190.559V119H181.91V114.535C178.793 117.934 175.418 119.633 171.785 119.633C168.27 119.633 165.434 118.484 163.277 116.188C161.121 113.891 160.043 110.891 160.043 107.188V86.1641H168.656ZM209.859 85.5312C211.664 85.5312 213.363 85.7422 214.957 86.1641C216.551 86.5625 218.238 87.207 220.02 88.0977V95.0234C218.379 93.9688 216.621 93.125 214.746 92.4922C212.871 91.8359 211.195 91.5078 209.719 91.5078C208.477 91.5078 207.504 91.7422 206.801 92.2109C206.098 92.6797 205.746 93.3477 205.746 94.2148C205.746 94.707 206.039 95.1992 206.625 95.6914C207.211 96.1836 208.816 97.0859 211.441 98.3984C215.191 100.297 217.816 102.055 219.316 103.672C220.84 105.266 221.602 107.188 221.602 109.438C221.602 112.602 220.5 115.098 218.297 116.926C216.094 118.73 213.117 119.633 209.367 119.633C207.023 119.633 204.832 119.375 202.793 118.859C200.777 118.344 199.102 117.723 197.766 116.996V109.789C201.984 112.133 205.535 113.305 208.418 113.305C209.895 113.305 211.09 113.047 212.004 112.531C212.918 111.992 213.375 111.289 213.375 110.422C213.375 109.906 213.211 109.438 212.883 109.016C212.555 108.594 212.062 108.16 211.406 107.715C210.75 107.27 208.699 106.203 205.254 104.516C202.605 103.25 200.648 101.879 199.383 100.402C198.117 98.9023 197.484 97.1328 197.484 95.0938C197.484 92.1875 198.621 89.8672 200.895 88.1328C203.168 86.3984 206.156 85.5312 209.859 85.5312ZM237.316 77.4453H238.02V86.1641H249.27V92.7031H238.02V107.855C238.02 109.332 238.465 110.527 239.355 111.441C240.246 112.355 241.465 112.812 243.012 112.812C245.027 112.812 247.348 112.086 249.973 110.633V117.559C246.855 118.941 243.926 119.633 241.184 119.633C237.48 119.633 234.586 118.625 232.5 116.609C230.438 114.594 229.406 111.863 229.406 108.418V92.7031H224.273V91.2969L237.316 77.4453ZM259.992 86.1641L267.762 103.812L275.637 86.1641H284.918L262.242 135.559H252.961L263.402 112.953L250.641 86.1641H259.992ZM328.477 69.8867C332.977 69.8867 336.645 71.0586 339.48 73.4023C342.316 75.7461 343.734 78.6758 343.734 82.1914C343.734 84.4414 343.137 86.4219 341.941 88.1328C340.77 89.8438 339.059 91.2031 336.809 92.2109V92.6328C340.23 93.4062 342.891 94.9414 344.789 97.2383C346.711 99.5117 347.672 102.184 347.672 105.254C347.672 107.973 346.969 110.41 345.562 112.566C344.18 114.699 342.246 116.305 339.762 117.383C337.301 118.461 334.395 119 331.043 119H310.477V69.8867H328.477ZM325.945 90.2773C328.453 90.2773 330.434 89.6797 331.887 88.4844C333.34 87.2891 334.066 85.625 334.066 83.4922C334.066 81.5938 333.398 80.0938 332.062 78.9922C330.727 77.8672 328.969 77.3047 326.789 77.3047H319.969V90.2773H325.945ZM328.16 111.582C331.371 111.582 333.797 110.984 335.438 109.789C337.078 108.57 337.898 106.789 337.898 104.445C337.898 102.359 337.078 100.719 335.438 99.5234C333.82 98.3047 331.641 97.6953 328.898 97.6953H319.969V111.582H328.16ZM373.371 85.5312C374.52 85.5312 375.645 85.7891 376.746 86.3047C377.871 86.8203 379.172 87.6875 380.648 88.9062L377.555 96.4648C375.047 94.5898 373.031 93.6523 371.508 93.6523C370.172 93.6523 368.848 94.1562 367.535 95.1641C366.246 96.1484 365.203 97.4609 364.406 99.1016C363.633 100.742 363.246 102.383 363.246 104.023V119H354.598V86.1641H363.246V94.5312H363.387C364.957 91.3672 366.539 89.082 368.133 87.6758C369.727 86.2461 371.473 85.5312 373.371 85.5312ZM397.91 85.5312C402.738 85.5312 406.559 87.0781 409.371 90.1719C412.184 93.2656 413.59 97.543 413.59 103.004V104.305H390.352C390.703 107.234 391.793 109.496 393.621 111.09C395.473 112.66 398.004 113.445 401.215 113.445C403.277 113.445 405.258 113.094 407.156 112.391C409.078 111.664 411.059 110.574 413.098 109.121V115.555C409.254 118.273 404.59 119.633 399.105 119.633C393.926 119.633 389.695 118.074 386.414 114.957C383.133 111.84 381.492 107.691 381.492 102.512C381.492 97.5195 383.004 93.4414 386.027 90.2773C389.074 87.1133 393.035 85.5312 397.91 85.5312ZM405.469 99.0664C405.234 96.6758 404.508 94.8125 403.289 93.4766C402.07 92.1172 400.395 91.4375 398.262 91.4375C396.082 91.4375 394.324 92.082 392.988 93.3711C391.676 94.6602 390.844 96.5586 390.492 99.0664H405.469ZM425.086 86.1641L432.715 105.113L440.484 86.1641H446.109L453.809 105.113L461.438 86.1641H470.438L455.812 119.633H452.156L443.297 99.5586L434.438 119.633H430.852L416.086 86.1641H425.086Z" fill="#0269F5"/>
</svg>
